# xmcd
#
# Track frame offsets: 
#        150
#        20598
#        60512
#        82919
#        103320
#        123915
#        141885
#        161340
#        177587
#        200725
#        216523
#        239075
#        260686
#        277541
#        293958
#        316937
#
# Disc length: 4766 seconds
#
# Revision: 1
# Processed by: cddbd v1.5.2PL0 Copyright (c) Steve Scherf et al.
# Submitted via: ExactAudioCopy v1.3
#
DISCID=f2129c10
DTITLE=Various Artist - Akella Presents - vol.59 - Blues-Rock  CD2
DYEAR=2016
DGENRE=Blues-Rock
TTITLE0=Craig Erickson - The Comeback
TTITLE1=West Water Outlaws - Things I Meant To Say
TTITLE2=The Pentones - Sunday Funny
TTITLE3=The Billy Lee Janey Band - Dawg Howl Moan
TTITLE4=King King - Crazy
TTITLE5=Delta Deep - Burnt Sally
TTITLE6=Troy Redfern - Backdoor Hoodoo
TTITLE7=Lea Hart of Fastway - Got me Under Prsessure
TTITLE8=Dirty Basement Blues - Blues To You
TTITLE9=Ernie and the Automatics - Dead Man
TTITLE10=Midnight Blues - Graceland
TTITLE11=Rob Orlemans and Half Past Midnight - Move On To Ti5 Light
TTITLE12=Patrick Woolam - How Do You Like Me Now
TTITLE13=Vitor Bacalhau - Can't Get Used
TTITLE14=Dean Hall - If You Really Loved Me
TTITLE15=David M'ore - Mistreated
EXTD=
EXTT0=
EXTT1=
EXTT2=
EXTT3=
EXTT4=
EXTT5=
EXTT6=
EXTT7=
EXTT8=
EXTT9=
EXTT10=
EXTT11=
EXTT12=
EXTT13=
EXTT14=
EXTT15=
PLAYORDER=
